<svg width="183" height="207" viewBox="0 0 183 207" fill="none" xmlns="http://www.w3.org/2000/svg">
    <path d="M181.988 166.543C180.356 167.237 178.752 167.897 177.174 168.523L177.358 168.988C178.94 168.36 180.548 167.699 182.184 167.003L181.988 166.543ZM175.293 169.258C172.022 170.518 168.868 171.629 165.825 172.598L165.977 173.075C169.03 172.102 172.193 170.988 175.473 169.725L175.293 169.258ZM163.896 173.199C160.521 174.224 157.286 175.071 154.183 175.751L154.29 176.239C157.407 175.557 160.655 174.706 164.041 173.677L163.896 173.199ZM152.233 176.159C148.763 176.853 145.461 177.331 142.317 177.609L142.361 178.107C145.525 177.827 148.844 177.346 152.331 176.65L152.233 176.159ZM140.386 177.756C136.83 177.981 133.481 177.943 130.321 177.663L130.277 178.161C133.464 178.443 136.839 178.481 140.417 178.255L140.386 177.756ZM128.295 177.448C124.824 177.017 121.587 176.285 118.556 175.284L118.4 175.759C121.462 176.77 124.731 177.509 128.233 177.944L128.295 177.448ZM116.679 174.619C113.476 173.409 110.51 171.888 107.749 170.096L107.476 170.515C110.267 172.327 113.265 173.864 116.502 175.087L116.679 174.619ZM106.094 168.972C103.38 167.048 100.868 164.853 98.5234 162.428L98.1639 162.775C100.528 165.22 103.063 167.436 105.804 169.38L106.094 168.972ZM97.1488 160.959C94.9409 158.524 92.8834 155.881 90.9453 153.067L90.5335 153.351C92.4823 156.18 94.5534 158.841 96.7784 161.295L97.1488 160.959ZM89.8277 151.406C88.0202 148.657 86.3163 145.759 84.6889 142.744L84.249 142.981C85.8819 146.006 87.5931 148.917 89.4099 151.681L89.8277 151.406ZM83.7467 140.97C82.2191 138.047 80.7568 135.024 79.336 131.929L78.8816 132.137C80.3051 135.238 81.7712 138.269 83.3036 141.201L83.7467 140.97ZM78.5001 130.089C77.1359 127.059 75.8066 123.966 74.4902 120.838L74.0294 121.032C75.3466 124.162 76.6777 127.259 78.0442 130.295L78.5001 130.089ZM73.7136 118.985C72.4255 115.9 71.1464 112.788 69.8547 109.669L69.3928 109.86C70.6837 112.977 71.9638 116.092 73.2522 119.177L73.7136 118.985ZM69.0811 107.805C67.7903 104.701 66.4834 101.597 65.1402 98.5186L64.682 98.7185C66.0235 101.793 67.3291 104.894 68.6194 107.997L69.0811 107.805ZM64.3275 96.6692C62.9592 93.5795 61.5498 90.5197 60.0786 87.5151L59.6296 87.735C61.0973 90.7326 62.504 93.7863 63.8703 96.8716L64.3275 96.6692ZM59.1849 85.7123C57.6616 82.678 56.0697 79.7059 54.3875 76.8223L53.9556 77.0743C55.6317 79.9473 57.2186 82.9101 58.738 85.9366L59.1849 85.7123ZM53.3544 75.0819C51.5973 72.1736 49.7411 69.3631 47.7622 66.6789L47.3598 66.9756C49.3283 69.6459 51.1762 72.4434 52.9264 75.3405L53.3544 75.0819ZM46.5473 65.0673C44.4752 62.3798 42.2701 59.8298 39.9073 57.4477L39.5523 57.7998C41.8991 60.1657 44.0905 62.6998 46.1514 65.3726L46.5473 65.0673ZM38.4632 56.0319C36.0296 53.7126 33.4324 51.5682 30.6465 49.6292L30.3609 50.0396C33.1244 51.963 35.7019 54.091 38.1182 56.3939L38.4632 56.0319ZM28.9759 48.5062C26.1992 46.7044 23.2406 45.1021 20.0772 43.727L19.8779 44.1856C23.0154 45.5494 25.9497 47.1385 28.7037 48.9256L28.9759 48.5062ZM18.1826 42.9406C15.1595 41.744 11.9553 40.7495 8.55163 39.9793L8.44128 40.467C11.8203 41.2316 14.9999 42.2185 17.9986 43.4055L18.1826 42.9406ZM6.60051 39.5669C4.95663 39.2435 3.26753 38.9711 1.53129 38.7521L1.46872 39.2481C3.19383 39.4658 4.87161 39.7363 6.504 40.0575L6.60051 39.5669ZM181.89 166.313C180.26 167.007 178.658 167.666 177.082 168.291L177.451 169.22C179.034 168.592 180.644 167.93 182.282 167.233L181.89 166.313ZM175.204 169.025C171.937 170.283 168.787 171.392 165.749 172.36L166.053 173.313C169.111 172.339 172.279 171.223 175.563 169.958L175.204 169.025ZM163.823 172.96C160.454 173.983 157.226 174.829 154.13 175.507L154.344 176.483C157.467 175.799 160.722 174.947 164.114 173.916L163.823 172.96ZM152.184 175.914C148.722 176.606 145.43 177.083 142.295 177.36L142.383 178.356C145.557 178.076 148.885 177.593 152.38 176.895L152.184 175.914ZM140.37 177.506C136.826 177.731 133.49 177.693 130.343 177.414L130.255 178.41C133.456 178.694 136.843 178.732 140.433 178.504L140.37 177.506ZM128.326 177.2C124.871 176.771 121.649 176.042 118.635 175.046L118.321 175.996C121.399 177.013 124.685 177.755 128.202 178.193L128.326 177.2ZM116.767 174.386C113.582 173.182 110.632 171.669 107.885 169.886L107.34 170.725C110.146 172.546 113.159 174.092 116.414 175.321L116.767 174.386ZM106.238 168.768C103.539 166.854 101.038 164.669 98.7031 162.254L97.9842 162.949C100.358 165.404 102.905 167.63 105.66 169.584L106.238 168.768ZM97.334 160.791C95.1346 158.366 93.0839 155.732 91.1512 152.925L90.3276 153.493C92.2818 156.33 94.3597 159 96.5932 161.463L97.334 160.791ZM90.0366 151.269C88.2337 148.527 86.5335 145.635 84.9089 142.625L84.029 143.1C85.6647 146.13 87.3795 149.048 89.201 151.818L90.0366 151.269ZM83.9683 140.854C82.4431 137.935 80.9827 134.916 79.5632 131.824L78.6544 132.242C80.0793 135.345 81.5472 138.38 83.082 141.317L83.9683 140.854ZM78.7281 129.987C77.365 126.959 76.0365 123.868 74.7207 120.741L73.7989 121.129C75.1166 124.26 76.4486 127.359 77.8162 130.397L78.7281 129.987ZM73.9443 118.888C72.6563 115.804 71.3778 112.693 70.0857 109.573L69.1618 109.956C70.4524 113.072 71.7329 116.188 73.0215 119.274L73.9443 118.888ZM69.3119 107.709C68.0209 104.604 66.7134 101.499 65.3694 98.4186L64.4528 98.8185C65.7935 101.892 67.0986 104.991 68.3886 108.093L69.3119 107.709ZM64.5561 96.568C63.1868 93.4761 61.7761 90.4133 60.3032 87.4052L59.4051 87.8449C60.8711 90.839 62.2763 93.8898 63.6417 96.9729L64.5561 96.568ZM59.4083 85.6001C57.883 82.562 56.2887 79.5851 54.6035 76.6964L53.7397 77.2003C55.4127 80.068 56.9971 83.0261 58.5146 86.0488L59.4083 85.6001ZM53.5684 74.9527C51.8079 72.0386 49.9474 69.2217 47.9634 66.5305L47.1585 67.1239C49.122 69.7873 50.9656 72.5783 52.7124 75.4698L53.5684 74.9527ZM46.7453 64.9146C44.6675 62.2198 42.4557 59.6619 40.0847 57.2716L39.3748 57.9759C41.7135 60.3337 43.8982 62.8598 45.9534 65.5253L46.7453 64.9146ZM38.6356 55.851C36.1935 53.5234 33.5864 51.3708 30.7894 49.424L30.2181 50.2448C32.9705 52.1604 35.5381 54.2802 37.9457 56.5748L38.6356 55.851ZM29.112 48.2965C26.324 46.4873 23.3532 44.8785 20.1769 43.4978L19.7782 44.4148C22.9028 45.7731 25.8249 47.3556 28.5676 49.1353L29.112 48.2965ZM18.2747 42.7081C15.2393 41.5067 12.0228 40.5084 8.6068 39.7355L8.38611 40.7108C11.7528 41.4726 14.9201 42.4558 17.9066 43.638L18.2747 42.7081ZM6.64877 39.3216C4.99915 38.9971 3.30439 38.7238 1.56259 38.504L1.43742 39.4962C3.15698 39.7131 4.82909 39.9828 6.45574 40.3028L6.64877 39.3216Z" fill="#8F98A0"/>
    <line x1="1.6534" y1="38.9698" x2="14.4134" y2="57.7187" stroke="#8F98A0" stroke-dasharray="10 2"/>
    <line x1="1.48418" y1="38.644" x2="23.6778" y2="33.9772" stroke="#8F98A0" stroke-dasharray="10 2"/>
</svg>
